<?xml version="1.0" encoding="iso-8859-1"?>
<!-- Generator: Adobe Illustrator 18.1.1, SVG Export Plug-In . SVG Version: 6.00 Build 0)  -->
<svg xmlns="http://www.w3.org/2000/svg" x="0px" y="0px"
width="80" height="80"
viewBox="0 0 172 172"
style=" fill:#000000;"><g fill="none" fill-rule="nonzero" stroke="none" stroke-width="1" stroke-linecap="butt" stroke-linejoin="miter" stroke-miterlimit="10" stroke-dasharray="" stroke-dashoffset="0" font-family="none" font-weight="none" font-size="none" text-anchor="none" style="mix-blend-mode: normal"><path d="M0,172v-172h172v172z" fill="none"></path><g fill="#ffffff"><path d="M86,15.05c-39.11992,0 -70.95,31.83008 -70.95,70.95c0,39.11992 31.83008,70.95 70.95,70.95c39.11992,0 70.95,-31.83008 70.95,-70.95c0,-12.00137 -3.00664,-23.30566 -8.28926,-33.22422l-3.2166,3.14102c4.59394,9.04512 7.20586,19.26601 7.20586,30.0832c0,36.75156 -29.89844,66.65 -66.65,66.65c-36.75156,0 -66.65,-29.89844 -66.65,-66.65c0,-36.75156 29.89844,-66.65 66.65,-66.65c18.89649,0 35.96211,7.91133 48.10625,20.59297l3.06543,-3.00664c-12.9168,-13.47109 -31.07422,-21.88633 -51.17168,-21.88633zM86,25.8c-1.18418,0 -2.15,0.96582 -2.15,2.15c0,1.18418 0.96582,2.15 2.15,2.15c1.18418,0 2.15,-0.96582 2.15,-2.15c0,-1.18418 -0.96582,-2.15 -2.15,-2.15zM97.37988,26.90859c-1.0498,-0.0252 -1.95684,0.70547 -2.1668,1.73848c-0.22676,1.15898 0.5291,2.29277 1.69649,2.52793c1.15898,0.22676 2.29277,-0.5291 2.52793,-1.68809c0.22676,-1.16738 -0.5291,-2.30117 -1.68809,-2.53633c-0.12598,-0.0168 -0.24355,-0.03359 -0.36953,-0.04199zM74.6873,26.91699c-0.14277,0 -0.28555,0.0084 -0.42832,0.03359c-1.16738,0.23516 -1.92324,1.36895 -1.68809,2.53633c0.10918,0.5543 0.43672,1.0498 0.91543,1.36895c0.47031,0.31074 1.0498,0.42832 1.6125,0.31914c1.16738,-0.23516 1.92324,-1.36055 1.68809,-2.52793c-0.20156,-0.99941 -1.075,-1.72168 -2.09961,-1.73008zM63.80293,30.21758c-0.28555,0 -0.57109,0.05039 -0.83984,0.15957c-1.10019,0.46191 -1.6209,1.71328 -1.15898,2.81348c0.45351,1.1002 1.70488,1.6209 2.80508,1.16738c1.1002,-0.46191 1.6209,-1.71328 1.16738,-2.81348c-0.33594,-0.79785 -1.10859,-1.31855 -1.97363,-1.32695zM108.26426,30.21758c-0.89024,-0.0168 -1.69649,0.50391 -2.04082,1.32695c-0.45351,1.1002 0.06719,2.35156 1.16738,2.81348c1.1002,0.45351 2.35156,-0.06719 2.80508,-1.16738c0.46191,-1.1002 -0.05879,-2.35156 -1.15898,-2.81348c-0.24355,-0.10078 -0.5123,-0.15117 -0.77266,-0.15957zM53.7752,35.57578c-0.43672,0 -0.86504,0.12598 -1.22617,0.36953c-0.98262,0.65508 -1.25137,1.99043 -0.58789,2.98145c0.65508,0.98262 1.99043,1.25137 2.98145,0.58789c0.99101,-0.65508 1.25137,-1.99043 0.59629,-2.97305c-0.39472,-0.59629 -1.0582,-0.95742 -1.76367,-0.96582zM118.28359,35.57578c-0.73066,-0.0084 -1.41934,0.35274 -1.82246,0.96582c-0.66348,0.98262 -0.39473,2.31797 0.58789,2.97305c0.99102,0.66348 2.32637,0.39473 2.98145,-0.58789c0.31914,-0.47031 0.43672,-1.0582 0.32754,-1.6125c-0.10918,-0.5627 -0.43672,-1.0582 -0.91543,-1.36895c-0.34434,-0.23516 -0.73906,-0.36113 -1.15899,-0.36953zM146.44355,36.88594l-65.0459,63.68535l-23.27207,-23.76758l-4.61074,4.51836l27.78203,28.36992l69.66504,-68.19531zM44.98203,42.79844c-0.57949,0 -1.14219,0.22676 -1.54531,0.63828c-0.83984,0.83145 -0.83984,2.20039 0,3.03184c0.83145,0.83984 2.20039,0.83984 3.03184,0c0.83984,-0.83144 0.83984,-2.20039 0,-3.03184c-0.39472,-0.40312 -0.92383,-0.62988 -1.48652,-0.63828zM127.07676,42.79844c-0.57949,0 -1.14219,0.22676 -1.54531,0.63828c-0.83984,0.83145 -0.83984,2.20039 0,3.03184c0.83145,0.83984 2.20039,0.83984 3.03184,0c0.83984,-0.83144 0.83984,-2.20039 0,-3.03184c-0.39473,-0.40312 -0.92383,-0.62988 -1.48652,-0.63828zM37.76777,51.6c-0.73066,-0.0168 -1.41934,0.34434 -1.82246,0.94902c-0.65508,0.99102 -0.39473,2.32637 0.59629,2.98145c0.99101,0.66348 2.31797,0.39473 2.98145,-0.58789c0.65508,-0.99102 0.39472,-2.32637 -0.59629,-2.98145c-0.34434,-0.22676 -0.73906,-0.35274 -1.15899,-0.36113zM139.64922,61.63613c-0.28555,-0.0084 -0.57109,0.05039 -0.83984,0.15957c-1.1002,0.45351 -1.6209,1.71328 -1.16738,2.80508c0.46191,1.1002 1.71328,1.6209 2.81348,1.16738c1.1002,-0.45352 1.6209,-1.71328 1.16738,-2.81348c-0.33594,-0.78945 -1.10859,-1.31855 -1.97363,-1.31855zM32.41797,61.63613c-0.89023,-0.0168 -1.69648,0.50391 -2.03242,1.32695c-0.45352,1.1002 0.06719,2.35156 1.15898,2.81348c1.1002,0.45352 2.35996,-0.06719 2.81348,-1.16738c0.45351,-1.10019 -0.06719,-2.35156 -1.16738,-2.80508c-0.24355,-0.10918 -0.50391,-0.15957 -0.77266,-0.16797zM142.94141,72.52891c-0.14277,-0.0084 -0.28555,0.0084 -0.42832,0.03359c-1.15898,0.23516 -1.91484,1.36895 -1.68809,2.52793c0.23516,1.16738 1.36895,1.92324 2.52793,1.69649c1.16738,-0.23516 1.92324,-1.36895 1.69649,-2.53633c-0.20156,-0.99941 -1.0834,-1.72168 -2.10801,-1.72168zM29.12578,72.52891c-1.0498,-0.0252 -1.95684,0.69707 -2.1668,1.72168c-0.10918,0.5627 0,1.15059 0.31914,1.6209c0.31914,0.47871 0.81465,0.80625 1.37734,0.91543c0.5543,0.10918 1.13379,-0.0084 1.6125,-0.31914c0.47031,-0.31914 0.79785,-0.81465 0.90703,-1.37734c0.23516,-1.15898 -0.5207,-2.29277 -1.67969,-2.52793c-0.12598,-0.0168 -0.24355,-0.03359 -0.36953,-0.03359zM27.95,83.85c-1.18418,0 -2.15,0.96582 -2.15,2.15c0,1.18418 0.96582,2.15 2.15,2.15c1.18418,0 2.15,-0.96582 2.15,-2.15c0,-1.18418 -0.96582,-2.15 -2.15,-2.15zM144.05,83.85c-1.18418,0 -2.15,0.96582 -2.15,2.15c0,1.18418 0.96582,2.15 2.15,2.15c1.18418,0 2.15,-0.96582 2.15,-2.15c0,-1.18418 -0.96582,-2.15 -2.15,-2.15zM29.07539,95.17109c-0.14278,0 -0.28555,0.0168 -0.42832,0.04199c-1.16738,0.23516 -1.92324,1.36895 -1.68809,2.53633c0.23516,1.15898 1.36055,1.91484 2.52793,1.68809c1.16738,-0.23516 1.92324,-1.36895 1.68809,-2.52793c-0.20156,-1.00781 -1.075,-1.73008 -2.09961,-1.73848zM142.9918,95.17109c-1.04981,-0.0252 -1.95684,0.70547 -2.1668,1.73848c-0.22676,1.15898 0.5291,2.29277 1.68809,2.52793c1.16738,0.22676 2.30117,-0.5291 2.53633,-1.68809c0.22676,-1.16738 -0.5291,-2.30117 -1.69649,-2.53633c-0.11758,-0.0168 -0.23516,-0.03359 -0.36113,-0.04199zM139.68281,106.05547c-0.89023,-0.0168 -1.69648,0.5123 -2.04082,1.33535c-0.45351,1.0918 0.06719,2.35156 1.16738,2.80508c1.1002,0.45352 2.35156,-0.06719 2.81348,-1.15898c0.45351,-1.1002 -0.06719,-2.35996 -1.16738,-2.81348c-0.24355,-0.10078 -0.5123,-0.15957 -0.77266,-0.16797zM32.38438,106.06387c-0.28555,0 -0.57109,0.05039 -0.83984,0.15957c-0.5207,0.21836 -0.94063,0.63828 -1.15898,1.16738c-0.21836,0.5291 -0.21836,1.11699 -0.0084,1.64609c0.46191,1.1002 1.71328,1.6209 2.81348,1.15898c0.5291,-0.20996 0.94902,-0.62988 1.16738,-1.15898c0.21836,-0.5291 0.21836,-1.11699 0,-1.64609c-0.32754,-0.79785 -1.10859,-1.31855 -1.97363,-1.32695zM134.30781,116.1c-0.73066,-0.0168 -1.41934,0.34434 -1.82246,0.94902c-0.66348,0.99102 -0.39473,2.31797 0.58789,2.98145c0.47031,0.31914 1.0582,0.43672 1.6125,0.31914c0.5627,-0.10918 1.0582,-0.43672 1.36895,-0.91543c0.66348,-0.98262 0.39473,-2.31797 -0.59629,-2.97305c-0.33594,-0.23516 -0.73906,-0.36113 -1.15059,-0.36113zM37.75938,116.1c-0.43672,-0.0084 -0.85664,0.11758 -1.21777,0.36113c-0.98262,0.66348 -1.25137,1.99043 -0.59629,2.98145c0.66348,0.98262 1.99883,1.25137 2.98984,0.58789c0.98262,-0.65508 1.25137,-1.99043 0.58789,-2.98145c-0.39473,-0.58789 -1.0582,-0.94062 -1.76367,-0.94902zM44.98203,124.90156c-0.57949,-0.0084 -1.14219,0.21836 -1.54531,0.62988c-0.83984,0.83145 -0.83984,2.20039 0,3.03184c0.83145,0.83984 2.20039,0.83984 3.03184,0c0.83984,-0.83145 0.83984,-2.20039 0,-3.03184c-0.39472,-0.40313 -0.92383,-0.62988 -1.48652,-0.62988zM127.07676,124.90156c-0.57949,-0.0084 -1.14219,0.21836 -1.54531,0.62988c-0.83984,0.83145 -0.83984,2.20039 0,3.03184c0.83145,0.83984 2.20039,0.83984 3.03184,0c0.83984,-0.83145 0.83984,-2.20039 0,-3.03184c-0.39473,-0.40313 -0.92383,-0.62988 -1.48652,-0.62988zM53.79199,132.11582c-0.73066,-0.0168 -1.41934,0.34434 -1.82246,0.94902c-0.66348,0.99102 -0.39473,2.32637 0.59629,2.98984c0.98262,0.65508 2.31797,0.38633 2.97305,-0.59629c0.66348,-0.99101 0.39473,-2.31797 -0.58789,-2.98144c-0.34434,-0.22676 -0.74746,-0.36113 -1.15899,-0.36113zM118.2752,132.11582c-0.43672,-0.0084 -0.85664,0.11758 -1.21777,0.35273c-0.47871,0.31914 -0.80625,0.81465 -0.91543,1.37734c-0.10918,0.5543 0.0084,1.14219 0.32754,1.6125c0.65508,0.98262 1.99043,1.25137 2.98145,0.59629c0.98262,-0.66348 1.25137,-1.99883 0.58789,-2.98984c-0.38633,-0.58789 -1.0498,-0.94902 -1.76367,-0.94902zM63.83652,137.47402c-0.89023,-0.0168 -1.69648,0.51231 -2.03242,1.33535c-0.45352,1.0918 0.06719,2.35156 1.15898,2.80508c1.1002,0.45351 2.35996,-0.06719 2.81348,-1.15899c0.45352,-1.1002 -0.06719,-2.35996 -1.16738,-2.81348c-0.24355,-0.10078 -0.50391,-0.15957 -0.77266,-0.16797zM108.23066,137.47402c-0.28555,0 -0.57109,0.05879 -0.83145,0.16797c-0.5291,0.21836 -0.94902,0.63828 -1.16738,1.15899c-0.21836,0.5291 -0.21836,1.12539 -0.0084,1.65449c0.46191,1.0918 1.71328,1.6125 2.81348,1.15899c0.5291,-0.21836 0.94902,-0.63828 1.16738,-1.15899c0.21836,-0.5291 0.21836,-1.12539 0,-1.64609c-0.32754,-0.80625 -1.10859,-1.32695 -1.97363,-1.33535zM74.7377,140.78301c-1.0498,-0.0252 -1.96524,0.70547 -2.1668,1.73008c-0.23516,1.16738 0.5207,2.29278 1.68809,2.52793c1.16738,0.23516 2.29277,-0.5207 2.52793,-1.68809c0.23516,-1.16738 -0.5207,-2.29277 -1.68809,-2.52793c-0.11758,-0.0252 -0.24356,-0.04199 -0.36113,-0.04199zM97.32949,140.79141c-0.14277,-0.0084 -0.28555,0.0084 -0.41992,0.03359c-1.16738,0.23516 -1.92324,1.36055 -1.69649,2.52793c0.11758,0.5627 0.44512,1.04981 0.91543,1.36895c0.47871,0.31914 1.0582,0.43672 1.6209,0.32754c0.5543,-0.11758 1.0498,-0.44512 1.36895,-0.91543c0.31074,-0.47871 0.42832,-1.0582 0.31914,-1.6209c-0.20156,-0.99941 -1.0834,-1.72168 -2.10801,-1.72168zM86,141.9c-1.18418,0 -2.15,0.96582 -2.15,2.15c0,1.18418 0.96582,2.15 2.15,2.15c1.18418,0 2.15,-0.96582 2.15,-2.15c0,-1.18418 -0.96582,-2.15 -2.15,-2.15z"></path></g></g></svg>
